<svg width="1200" height="800" xmlns="http://www.w3.org/2000/svg">
  <defs>
    <linearGradient id="grad1" x1="0%" y1="0%" x2="100%" y2="100%">
      <stop offset="0%" style="stop-color:rgb(99,102,241);stop-opacity:1" />
      <stop offset="100%" style="stop-color:rgb(168,85,247);stop-opacity:1" />
    </linearGradient>
  </defs>
  
  <!-- Background -->
  <rect width="1200" height="800" fill="#0f172a"/>
  
  <!-- Header -->
  <rect x="0" y="0" width="1200" height="80" fill="#1e293b"/>
  <text x="40" y="50" font-family="Arial, sans-serif" font-size="24" font-weight="bold" fill="white">
    CredStack Dashboard
  </text>
  
  <!-- Credit Score Card -->
  <rect x="40" y="120" width="350" height="250" rx="12" fill="#1e293b" opacity="0.9"/>
  <text x="60" y="160" font-family="Arial, sans-serif" font-size="18" fill="#94a3b8">
    Credit Health Score
  </text>
  <text x="60" y="230" font-family="Arial, sans-serif" font-size="64" font-weight="bold" fill="url(#grad1)">
    750
  </text>
  <text x="60" y="270" font-family="Arial, sans-serif" font-size="16" fill="#64748b">
    ▲ 12 points this month
  </text>
  
  <!-- Utilization Card -->
  <rect x="425" y="120" width="350" height="250" rx="12" fill="#1e293b" opacity="0.9"/>
  <text x="445" y="160" font-family="Arial, sans-serif" font-size="18" fill="#94a3b8">
    Credit Utilization
  </text>
  <text x="445" y="230" font-family="Arial, sans-serif" font-size="64" font-weight="bold" fill="#22c55e">
    8%
  </text>
  <text x="445" y="270" font-family="Arial, sans-serif" font-size="16" fill="#64748b">
    Optimal range
  </text>
  
  <!-- Accounts Card -->
  <rect x="810" y="120" width="350" height="250" rx="12" fill="#1e293b" opacity="0.9"/>
  <text x="830" y="160" font-family="Arial, sans-serif" font-size="18" fill="#94a3b8">
    Active Accounts
  </text>
  <text x="830" y="230" font-family="Arial, sans-serif" font-size="64" font-weight="bold" fill="#3b82f6">
    5
  </text>
  <text x="830" y="270" font-family="Arial, sans-serif" font-size="16" fill="#64748b">
    3 credit cards, 2 loans
  </text>
  
  <!-- Recent Activity Section -->
  <rect x="40" y="410" width="560" height="350" rx="12" fill="#1e293b" opacity="0.9"/>
  <text x="60" y="450" font-family="Arial, sans-serif" font-size="20" font-weight="bold" fill="white">
    Recent Activity
  </text>
  <rect x="60" y="470" width="520" height="60" rx="8" fill="#334155"/>
  <text x="80" y="505" font-family="Arial, sans-serif" font-size="16" fill="white">
    Chase Freedom • Payment processed
  </text>
  <rect x="60" y="545" width="520" height="60" rx="8" fill="#334155"/>
  <text x="80" y="580" font-family="Arial, sans-serif" font-size="16" fill="white">
    AmEx Gold • Statement due in 3 days
  </text>
  <rect x="60" y="620" width="520" height="60" rx="8" fill="#334155"/>
  <text x="80" y="655" font-family="Arial, sans-serif" font-size="16" fill="white">
    Dispute filed • TransUnion
  </text>
  
  <!-- Upcoming Reminders -->
  <rect x="635" y="410" width="525" height="350" rx="12" fill="#1e293b" opacity="0.9"/>
  <text x="655" y="450" font-family="Arial, sans-serif" font-size="20" font-weight="bold" fill="white">
    Upcoming Reminders
  </text>
  <rect x="655" y="470" width="485" height="60" rx="8" fill="#334155"/>
  <text x="675" y="505" font-family="Arial, sans-serif" font-size="16" fill="#fbbf24">
    ⏰ Payment due tomorrow
  </text>
  <rect x="655" y="545" width="485" height="60" rx="8" fill="#334155"/>
  <text x="675" y="580" font-family="Arial, sans-serif" font-size="16" fill="#22c55e">
    ✓ Statement closes in 5 days
  </text>
  
  <!-- Watermark -->
  <text x="1050" y="785" font-family="Arial, sans-serif" font-size="12" fill="#475569">
    CredStack • Screenshot
  </text>
</svg>
