<svg width="1200" height="800" xmlns="http://www.w3.org/2000/svg">
  <!-- Background -->
  <rect width="1200" height="800" fill="#0f172a"/>
  
  <!-- Header -->
  <rect x="0" y="0" width="1200" height="80" fill="#1e293b"/>
  <text x="40" y="50" font-family="Arial, sans-serif" font-size="24" font-weight="bold" fill="white">
    Reports &amp; Analytics
  </text>
  
  <!-- Main Content -->
  <rect x="40" y="120" width="1120" height="640" rx="12" fill="#1e293b" opacity="0.9"/>
  
  <!-- Title -->
  <text x="60" y="170" font-family="Arial, sans-serif" font-size="22" font-weight="bold" fill="white">
    Credit Score Trend
  </text>
  
  <!-- Chart Area -->
  <rect x="60" y="200" width="1080" height="300" rx="8" fill="#334155"/>
  
  <!-- Y-axis labels -->
  <text x="80" y="235" font-family="Arial, sans-serif" font-size="12" fill="#64748b">800</text>
  <text x="80" y="310" font-family="Arial, sans-serif" font-size="12" fill="#64748b">750</text>
  <text x="80" y="385" font-family="Arial, sans-serif" font-size="12" fill="#64748b">700</text>
  <text x="80" y="460" font-family="Arial, sans-serif" font-size="12" fill="#64748b">650</text>
  
  <!-- Grid lines -->
  <line x1="120" y1="230" x2="1120" y2="230" stroke="#475569" stroke-width="1" stroke-dasharray="5,5"/>
  <line x1="120" y1="305" x2="1120" y2="305" stroke="#475569" stroke-width="1" stroke-dasharray="5,5"/>
  <line x1="120" y1="380" x2="1120" y2="380" stroke="#475569" stroke-width="1" stroke-dasharray="5,5"/>
  <line x1="120" y1="455" x2="1120" y2="455" stroke="#475569" stroke-width="1" stroke-dasharray="5,5"/>
  
  <!-- Line chart -->
  <polyline points="120,380 280,370 440,355 600,340 760,330 920,315 1080,305" 
            fill="none" stroke="#3b82f6" stroke-width="3"/>
  
  <!-- Data points -->
  <circle cx="120" cy="380" r="5" fill="#3b82f6"/>
  <circle cx="280" cy="370" r="5" fill="#3b82f6"/>
  <circle cx="440" cy="355" r="5" fill="#3b82f6"/>
  <circle cx="600" cy="340" r="5" fill="#3b82f6"/>
  <circle cx="760" cy="330" r="5" fill="#3b82f6"/>
  <circle cx="920" cy="315" r="5" fill="#3b82f6"/>
  <circle cx="1080" cy="305" r="6" fill="#22c55e"/>
  
  <!-- X-axis labels -->
  <text x="105" y="485" font-family="Arial, sans-serif" font-size="12" fill="#64748b">Jan</text>
  <text x="265" y="485" font-family="Arial, sans-serif" font-size="12" fill="#64748b">Feb</text>
  <text x="425" y="485" font-family="Arial, sans-serif" font-size="12" fill="#64748b">Mar</text>
  <text x="585" y="485" font-family="Arial, sans-serif" font-size="12" fill="#64748b">Apr</text>
  <text x="745" y="485" font-family="Arial, sans-serif" font-size="12" fill="#64748b">May</text>
  <text x="905" y="485" font-family="Arial, sans-serif" font-size="12" fill="#64748b">Jun</text>
  <text x="1065" y="485" font-family="Arial, sans-serif" font-size="12" fill="#64748b">Jul</text>
  
  <!-- Stats Cards -->
  <text x="60" y="540" font-family="Arial, sans-serif" font-size="18" font-weight="bold" fill="white">
    Key Metrics
  </text>
  
  <!-- Card 1 -->
  <rect x="60" y="560" width="250" height="100" rx="8" fill="#334155"/>
  <text x="80" y="595" font-family="Arial, sans-serif" font-size="14" fill="#94a3b8">
    Average Score
  </text>
  <text x="80" y="630" font-family="Arial, sans-serif" font-size="28" font-weight="bold" fill="white">
    738
  </text>
  
  <!-- Card 2 -->
  <rect x="335" y="560" width="250" height="100" rx="8" fill="#334155"/>
  <text x="355" y="595" font-family="Arial, sans-serif" font-size="14" fill="#94a3b8">
    6-Month Change
  </text>
  <text x="355" y="630" font-family="Arial, sans-serif" font-size="28" font-weight="bold" fill="#22c55e">
    +50
  </text>
  
  <!-- Card 3 -->
  <rect x="610" y="560" width="250" height="100" rx="8" fill="#334155"/>
  <text x="630" y="595" font-family="Arial, sans-serif" font-size="14" fill="#94a3b8">
    Avg. Utilization
  </text>
  <text x="630" y="630" font-family="Arial, sans-serif" font-size="28" font-weight="bold" fill="#22c55e">
    7.2%
  </text>
  
  <!-- Card 4 -->
  <rect x="885" y="560" width="255" height="100" rx="8" fill="#334155"/>
  <text x="905" y="595" font-family="Arial, sans-serif" font-size="14" fill="#94a3b8">
    On-Time Payments
  </text>
  <text x="905" y="630" font-family="Arial, sans-serif" font-size="28" font-weight="bold" fill="#22c55e">
    100%
  </text>
  
  <!-- Export Button -->
  <rect x="1000" y="700" width="140" height="40" rx="8" fill="#3b82f6"/>
  <text x="1030" y="727" font-family="Arial, sans-serif" font-size="14" font-weight="bold" fill="white">
    📥 Export PDF
  </text>
  
  <!-- Watermark -->
  <text x="1050" y="785" font-family="Arial, sans-serif" font-size="12" fill="#475569">
    CredStack • Screenshot
  </text>
</svg>
